# xmcd
#
# Track frame offsets: 
#        150
#        36752
#        61135
#        95855
#        142431
#        178313
#        210719
#
# Disc length: 3622 seconds
#
# Revision: 0
# Processed by: cddbd v1.5.2PL0 Copyright (c) Steve Scherf et al.
# Submitted via: ExactAudioCopy v0.99pb5
#
DISCID=700e2407
DTITLE=Eric Clapton  - E.C. Is Here - Disc 02 (DJ Copy 64)
DYEAR=1900
DGENRE=
TTITLE0=Mainline Florida
TTITLE1=Layla
TTITLE2=Have You Ever Loved A Woman
TTITLE3=Tell The Truth
TTITLE4=Steady Rollin' Man
TTITLE5=Little Queenie
TTITLE6=Blues Jam
EXTD=
EXTT0=
EXTT1=
EXTT2=
EXTT3=
EXTT4=
EXTT5=
EXTT6=
PLAYORDER=
